<svg width="283" height="36" viewBox="0 0 283 36" fill="none" xmlns="http://www.w3.org/2000/svg">
<path d="M37.0401 5.13543L50.7209 23.9566L44.3262 28.639L35.3016 16.2235L30.9446 19.4232L26.2731 13.0057L37.0401 5.13543ZM24.2967 14.4571L28.9502 20.8797L33.3342 26.8904L26.9241 31.5609L17.9137 19.1649L8.05017 26.3748L5.52469 28.2072L0.868529 21.8016L19.6532 8.07076L24.2967 14.4571Z" fill="#FBC02D"/>
<path d="M71.6808 12.7867C73.2808 12.7867 74.5528 13.2667 75.4968 14.2267C76.4568 15.1867 76.9368 16.6347 76.9368 18.5707V26.0107H72.3768V19.3147C72.3768 18.4027 72.2008 17.7307 71.8488 17.2987C71.5128 16.8667 71.0328 16.6507 70.4088 16.6507C69.7208 16.6507 69.1688 16.8907 68.7528 17.3707C68.3368 17.8507 68.1288 18.5787 68.1288 19.5547V26.0107H63.5688V19.3147C63.5688 17.5387 62.9128 16.6507 61.6008 16.6507C60.8968 16.6507 60.3368 16.8907 59.9208 17.3707C59.5048 17.8507 59.2968 18.5787 59.2968 19.5547V26.0107H54.7368V13.0027H59.0808V14.3707C59.5608 13.8427 60.1288 13.4507 60.7848 13.1947C61.4568 12.9227 62.1848 12.7867 62.9688 12.7867C63.8808 12.7867 64.6968 12.9547 65.4168 13.2907C66.1368 13.6267 66.7208 14.1387 67.1688 14.8267C67.6808 14.1707 68.3288 13.6667 69.1128 13.3147C69.8968 12.9627 70.7528 12.7867 71.6808 12.7867ZM85.3589 12.7867C87.5189 12.7867 89.1669 13.2827 90.3029 14.2747C91.4389 15.2507 92.0069 16.7547 92.0069 18.7867V26.0107H87.7589V24.3307C87.1029 25.5947 85.8229 26.2267 83.9189 26.2267C82.9109 26.2267 82.0389 26.0507 81.3029 25.6987C80.5669 25.3467 80.0069 24.8747 79.6229 24.2827C79.2549 23.6747 79.0709 22.9867 79.0709 22.2187C79.0709 20.9867 79.5429 20.0347 80.4869 19.3627C81.4309 18.6747 82.8869 18.3307 84.8549 18.3307H87.4469C87.3669 16.9547 86.4469 16.2667 84.6869 16.2667C84.0629 16.2667 83.4309 16.3707 82.7909 16.5787C82.1509 16.7707 81.6069 17.0427 81.1589 17.3947L79.6229 14.2987C80.3429 13.8187 81.2149 13.4507 82.2389 13.1947C83.2789 12.9227 84.3189 12.7867 85.3589 12.7867ZM85.1909 23.3467C85.7189 23.3467 86.1829 23.2187 86.5829 22.9627C86.9829 22.7067 87.2709 22.3307 87.4469 21.8347V20.7067H85.4789C84.1509 20.7067 83.4869 21.1467 83.4869 22.0267C83.4869 22.4267 83.6389 22.7467 83.9429 22.9867C84.2469 23.2267 84.6629 23.3467 85.1909 23.3467ZM103.357 12.7867C104.973 12.7867 106.269 13.2667 107.245 14.2267C108.237 15.1867 108.733 16.6347 108.733 18.5707V26.0107H104.173V19.3147C104.173 17.5387 103.461 16.6507 102.037 16.6507C101.253 16.6507 100.621 16.9067 100.141 17.4187C99.6772 17.9307 99.4452 18.6987 99.4452 19.7227V26.0107H94.8852V13.0027H99.2292V14.4187C99.7412 13.8907 100.349 13.4907 101.053 13.2187C101.757 12.9307 102.525 12.7867 103.357 12.7867ZM125.276 13.0027V26.0107H120.932V24.6187C120.452 25.1467 119.876 25.5467 119.204 25.8187C118.532 26.0907 117.82 26.2267 117.068 26.2267C115.388 26.2267 114.044 25.7307 113.036 24.7387C112.044 23.7467 111.548 22.2587 111.548 20.2747V13.0027H116.108V19.5307C116.108 20.5067 116.292 21.2187 116.66 21.6667C117.028 22.1147 117.564 22.3387 118.268 22.3387C118.988 22.3387 119.572 22.0907 120.02 21.5947C120.484 21.0827 120.716 20.3067 120.716 19.2667V13.0027H125.276ZM132.941 26.2267C131.853 26.2267 130.781 26.1067 129.725 25.8667C128.669 25.6107 127.821 25.2827 127.181 24.8827L128.549 21.7627C129.141 22.1307 129.845 22.4267 130.661 22.6507C131.477 22.8587 132.285 22.9627 133.085 22.9627C133.821 22.9627 134.341 22.8907 134.645 22.7467C134.965 22.5867 135.125 22.3627 135.125 22.0747C135.125 21.7867 134.933 21.5867 134.549 21.4747C134.181 21.3467 133.589 21.2267 132.773 21.1147C131.733 20.9867 130.845 20.8187 130.109 20.6107C129.389 20.4027 128.765 20.0187 128.237 19.4587C127.709 18.8987 127.445 18.1147 127.445 17.1067C127.445 16.2747 127.693 15.5387 128.189 14.8987C128.685 14.2427 129.405 13.7307 130.349 13.3627C131.309 12.9787 132.453 12.7867 133.781 12.7867C134.725 12.7867 135.661 12.8827 136.589 13.0747C137.517 13.2667 138.293 13.5387 138.917 13.8907L137.549 16.9867C136.397 16.3467 135.149 16.0267 133.805 16.0267C133.085 16.0267 132.557 16.1147 132.221 16.2907C131.885 16.4507 131.717 16.6667 131.717 16.9387C131.717 17.2427 131.901 17.4587 132.269 17.5867C132.637 17.6987 133.245 17.8187 134.093 17.9467C135.165 18.1067 136.053 18.2907 136.757 18.4987C137.461 18.7067 138.069 19.0907 138.581 19.6507C139.109 20.1947 139.373 20.9627 139.373 21.9547C139.373 22.7707 139.125 23.5067 138.629 24.1627C138.133 24.8027 137.397 25.3067 136.421 25.6747C135.461 26.0427 134.301 26.2267 132.941 26.2267ZM146.882 12.7867C149.042 12.7867 150.69 13.2827 151.826 14.2747C152.962 15.2507 153.53 16.7547 153.53 18.7867V26.0107H149.282V24.3307C148.626 25.5947 147.346 26.2267 145.442 26.2267C144.434 26.2267 143.562 26.0507 142.826 25.6987C142.09 25.3467 141.53 24.8747 141.146 24.2827C140.778 23.6747 140.594 22.9867 140.594 22.2187C140.594 20.9867 141.066 20.0347 142.01 19.3627C142.954 18.6747 144.41 18.3307 146.378 18.3307H148.97C148.89 16.9547 147.97 16.2667 146.21 16.2667C145.586 16.2667 144.954 16.3707 144.314 16.5787C143.674 16.7707 143.13 17.0427 142.682 17.3947L141.146 14.2987C141.866 13.8187 142.738 13.4507 143.762 13.1947C144.802 12.9227 145.842 12.7867 146.882 12.7867ZM146.714 23.3467C147.242 23.3467 147.706 23.2187 148.106 22.9627C148.506 22.7067 148.794 22.3307 148.97 21.8347V20.7067H147.002C145.674 20.7067 145.01 21.1467 145.01 22.0267C145.01 22.4267 145.162 22.7467 145.466 22.9867C145.77 23.2267 146.186 23.3467 146.714 23.3467ZM161.953 12.7867C164.113 12.7867 165.761 13.2827 166.897 14.2747C168.033 15.2507 168.601 16.7547 168.601 18.7867V26.0107H164.353V24.3307C163.697 25.5947 162.417 26.2267 160.513 26.2267C159.505 26.2267 158.633 26.0507 157.897 25.6987C157.161 25.3467 156.601 24.8747 156.217 24.2827C155.849 23.6747 155.665 22.9867 155.665 22.2187C155.665 20.9867 156.137 20.0347 157.081 19.3627C158.025 18.6747 159.481 18.3307 161.449 18.3307H164.041C163.961 16.9547 163.041 16.2667 161.281 16.2667C160.657 16.2667 160.025 16.3707 159.385 16.5787C158.745 16.7707 158.201 17.0427 157.753 17.3947L156.217 14.2987C156.937 13.8187 157.809 13.4507 158.833 13.1947C159.873 12.9227 160.913 12.7867 161.953 12.7867ZM161.785 23.3467C162.313 23.3467 162.777 23.2187 163.177 22.9627C163.577 22.7067 163.865 22.3307 164.041 21.8347V20.7067H162.073C160.745 20.7067 160.081 21.1467 160.081 22.0267C160.081 22.4267 160.233 22.7467 160.537 22.9867C160.841 23.2267 161.257 23.3467 161.785 23.3467ZM184.949 13.0027L179.573 26.0107H174.869L169.517 13.0027H174.197L177.317 20.9467L180.605 13.0027H184.949ZM199.072 19.5307C199.072 19.5627 199.048 19.9387 199 20.6587H189.544C189.736 21.3307 190.104 21.8507 190.648 22.2187C191.208 22.5707 191.904 22.7467 192.736 22.7467C193.36 22.7467 193.896 22.6587 194.344 22.4827C194.808 22.3067 195.272 22.0187 195.736 21.6187L198.136 24.1147C196.872 25.5227 195.024 26.2267 192.592 26.2267C191.072 26.2267 189.736 25.9387 188.584 25.3627C187.432 24.7867 186.536 23.9867 185.896 22.9627C185.272 21.9387 184.96 20.7787 184.96 19.4827C184.96 18.2027 185.264 17.0587 185.872 16.0507C186.496 15.0267 187.352 14.2267 188.44 13.6507C189.528 13.0747 190.752 12.7867 192.112 12.7867C193.408 12.7867 194.584 13.0587 195.64 13.6027C196.696 14.1307 197.528 14.9067 198.136 15.9307C198.76 16.9387 199.072 18.1387 199.072 19.5307ZM192.136 16.0267C191.432 16.0267 190.84 16.2267 190.36 16.6267C189.896 17.0267 189.6 17.5707 189.472 18.2587H194.8C194.672 17.5707 194.368 17.0267 193.888 16.6267C193.424 16.2267 192.84 16.0267 192.136 16.0267ZM214.998 8.20274V26.0107H210.654V24.7147C209.806 25.7227 208.534 26.2267 206.838 26.2267C205.654 26.2267 204.574 25.9547 203.598 25.4107C202.622 24.8507 201.846 24.0587 201.27 23.0347C200.71 22.0107 200.43 20.8267 200.43 19.4827C200.43 18.1387 200.71 16.9627 201.27 15.9547C201.846 14.9307 202.622 14.1467 203.598 13.6027C204.574 13.0587 205.654 12.7867 206.838 12.7867C208.39 12.7867 209.59 13.2347 210.438 14.1307V8.20274H214.998ZM207.798 22.6027C208.582 22.6027 209.23 22.3307 209.742 21.7867C210.254 21.2267 210.51 20.4587 210.51 19.4827C210.51 18.5227 210.254 17.7707 209.742 17.2267C209.246 16.6827 208.598 16.4107 207.798 16.4107C206.998 16.4107 206.342 16.6827 205.83 17.2267C205.318 17.7707 205.062 18.5227 205.062 19.4827C205.062 20.4587 205.318 21.2267 205.83 21.7867C206.342 22.3307 206.998 22.6027 207.798 22.6027ZM222.276 14.5627C222.74 13.9707 223.34 13.5307 224.076 13.2427C224.828 12.9387 225.684 12.7867 226.644 12.7867V16.8907C226.228 16.8427 225.884 16.8187 225.612 16.8187C224.636 16.8187 223.868 17.0827 223.308 17.6107C222.764 18.1387 222.492 18.9467 222.492 20.0347V26.0107H217.932V13.0027H222.276V14.5627ZM233.976 12.7867C236.136 12.7867 237.784 13.2827 238.92 14.2747C240.056 15.2507 240.624 16.7547 240.624 18.7867V26.0107H236.376V24.3307C235.72 25.5947 234.44 26.2267 232.536 26.2267C231.528 26.2267 230.656 26.0507 229.92 25.6987C229.184 25.3467 228.624 24.8747 228.24 24.2827C227.872 23.6747 227.688 22.9867 227.688 22.2187C227.688 20.9867 228.16 20.0347 229.104 19.3627C230.048 18.6747 231.504 18.3307 233.472 18.3307H236.064C235.984 16.9547 235.064 16.2667 233.304 16.2667C232.68 16.2667 232.048 16.3707 231.408 16.5787C230.768 16.7707 230.224 17.0427 229.776 17.3947L228.24 14.2987C228.96 13.8187 229.832 13.4507 230.856 13.1947C231.896 12.9227 232.936 12.7867 233.976 12.7867ZM233.808 23.3467C234.336 23.3467 234.8 23.2187 235.2 22.9627C235.6 22.7067 235.888 22.3307 236.064 21.8347V20.7067H234.096C232.768 20.7067 232.104 21.1467 232.104 22.0267C232.104 22.4267 232.256 22.7467 232.56 22.9867C232.864 23.2267 233.28 23.3467 233.808 23.3467Z" fill="black"/>
</svg>
