<svg width="283" height="36" viewBox="0 0 283 36" fill="none" xmlns="http://www.w3.org/2000/svg">
<path d="M37.0401 5.17865L50.7209 23.9998L44.3262 28.6822L35.3016 16.2667L30.9446 19.4664L26.2731 13.0489L37.0401 5.17865ZM24.2967 14.5003L28.9502 20.9229L33.3342 26.9336L26.9241 31.6041L17.9137 19.2082L8.05017 26.418L5.52469 28.2504L0.868529 21.8448L19.6532 8.11397L24.2967 14.5003Z" fill="#FBC02D"/>
<path d="M71.6808 12.83C69.8088 12.83 68.2008 13.574 67.1688 14.87C66.2568 13.478 64.7448 12.83 62.9688 12.83C61.4328 12.83 60.0648 13.358 59.0808 14.414V13.046H54.7368V26.054H59.2968V19.598C59.2968 17.582 60.2568 16.694 61.6008 16.694C62.8248 16.694 63.5688 17.486 63.5688 19.358V26.054H68.1288V19.598C68.1288 17.582 69.0888 16.694 70.4088 16.694C71.6088 16.694 72.3768 17.486 72.3768 19.358V26.054H76.9368V18.614C76.9368 14.582 74.7048 12.83 71.6808 12.83ZM85.3589 12.83C83.3189 12.83 81.1109 13.358 79.6229 14.342L81.1589 17.438C82.0469 16.742 83.4389 16.31 84.6869 16.31C86.4869 16.31 87.3749 17.054 87.4469 18.374H84.8549C80.8229 18.374 79.0709 19.862 79.0709 22.262C79.0709 24.518 80.7989 26.27 83.9189 26.27C85.8149 26.27 87.1109 25.622 87.7589 24.374V26.054H92.0069V18.83C92.0069 14.702 89.5829 12.83 85.3589 12.83ZM85.1909 23.39C84.1109 23.39 83.4869 22.838 83.4869 22.07C83.4869 21.278 84.0149 20.75 85.4789 20.75H87.4469V21.878C87.0869 22.91 86.1989 23.39 85.1909 23.39ZM103.357 12.83C101.725 12.83 100.261 13.382 99.2292 14.462V13.046H94.8852V26.054H99.4452V19.766C99.4452 17.606 100.573 16.694 102.037 16.694C103.357 16.694 104.173 17.486 104.173 19.358V26.054H108.733V18.614C108.733 14.582 106.405 12.83 103.357 12.83ZM120.716 13.046V19.31C120.716 21.494 119.612 22.382 118.268 22.382C116.9 22.382 116.108 21.59 116.108 19.574V13.046H111.548V20.318C111.548 24.446 113.876 26.27 117.068 26.27C118.556 26.27 119.948 25.742 120.932 24.662V26.054H125.276V13.046H120.716ZM132.941 26.27C137.165 26.27 139.373 24.398 139.373 21.998C139.373 16.838 131.717 18.782 131.717 16.982C131.717 16.502 132.269 16.07 133.805 16.07C134.957 16.07 136.253 16.31 137.549 17.03L138.917 13.934C137.621 13.214 135.605 12.83 133.781 12.83C129.701 12.83 127.445 14.702 127.445 17.15C127.445 22.358 135.125 20.366 135.125 22.118C135.125 22.67 134.621 23.006 133.085 23.006C131.501 23.006 129.749 22.55 128.549 21.806L127.181 24.926C128.453 25.718 130.733 26.27 132.941 26.27ZM146.882 12.83C144.842 12.83 142.634 13.358 141.146 14.342L142.682 17.438C143.57 16.742 144.962 16.31 146.21 16.31C148.01 16.31 148.898 17.054 148.97 18.374H146.378C142.346 18.374 140.594 19.862 140.594 22.262C140.594 24.518 142.322 26.27 145.442 26.27C147.338 26.27 148.634 25.622 149.282 24.374V26.054H153.53V18.83C153.53 14.702 151.106 12.83 146.882 12.83ZM146.714 23.39C145.634 23.39 145.01 22.838 145.01 22.07C145.01 21.278 145.538 20.75 147.002 20.75H148.97V21.878C148.61 22.91 147.722 23.39 146.714 23.39ZM161.953 12.83C159.913 12.83 157.705 13.358 156.217 14.342L157.753 17.438C158.641 16.742 160.033 16.31 161.281 16.31C163.081 16.31 163.969 17.054 164.041 18.374H161.449C157.417 18.374 155.665 19.862 155.665 22.262C155.665 24.518 157.393 26.27 160.513 26.27C162.409 26.27 163.705 25.622 164.353 24.374V26.054H168.601V18.83C168.601 14.702 166.177 12.83 161.953 12.83ZM161.785 23.39C160.705 23.39 160.081 22.838 160.081 22.07C160.081 21.278 160.609 20.75 162.073 20.75H164.041V21.878C163.681 22.91 162.793 23.39 161.785 23.39ZM180.605 13.046L177.317 20.99L174.197 13.046H169.517L174.869 26.054H179.573L184.949 13.046H180.605ZM199.072 19.574C199.072 15.278 195.952 12.83 192.112 12.83C188.008 12.83 184.96 15.614 184.96 19.526C184.96 23.414 187.96 26.27 192.592 26.27C195.064 26.27 196.888 25.55 198.136 24.158L195.736 21.662C194.848 22.43 194.008 22.79 192.736 22.79C191.056 22.79 189.928 22.022 189.544 20.702H199C199.024 20.342 199.072 19.91 199.072 19.574ZM192.136 16.07C193.552 16.07 194.56 16.934 194.8 18.302H189.472C189.736 16.934 190.72 16.07 192.136 16.07ZM210.438 8.24595V14.174C209.574 13.262 208.35 12.83 206.838 12.83C203.286 12.83 200.43 15.398 200.43 19.526C200.43 23.678 203.286 26.27 206.838 26.27C208.518 26.27 209.79 25.79 210.654 24.758V26.054H214.998V8.24595H210.438ZM207.798 22.646C206.238 22.646 205.062 21.518 205.062 19.526C205.062 17.558 206.238 16.454 207.798 16.454C209.334 16.454 210.51 17.558 210.51 19.526C210.51 21.518 209.334 22.646 207.798 22.646ZM222.276 14.606V13.046H217.932V26.054H222.492V20.078C222.492 17.798 223.764 16.862 225.612 16.862C225.948 16.862 226.236 16.886 226.644 16.934V12.83C224.724 12.83 223.212 13.43 222.276 14.606ZM233.976 12.83C231.936 12.83 229.728 13.358 228.24 14.342L229.776 17.438C230.664 16.742 232.056 16.31 233.304 16.31C235.104 16.31 235.992 17.054 236.064 18.374H233.472C229.44 18.374 227.688 19.862 227.688 22.262C227.688 24.518 229.416 26.27 232.536 26.27C234.432 26.27 235.728 25.622 236.376 24.374V26.054H240.624V18.83C240.624 14.702 238.2 12.83 233.976 12.83ZM233.808 23.39C232.728 23.39 232.104 22.838 232.104 22.07C232.104 21.278 232.632 20.75 234.096 20.75H236.064V21.878C235.704 22.91 234.816 23.39 233.808 23.39Z" fill="white"/>
</svg>
