<svg width="120" height="120" viewBox="0 0 120 120" fill="none" xmlns="http://www.w3.org/2000/svg">
<path d="M0 25C0 18.3696 2.63392 12.0107 7.32233 7.32233C12.0107 2.63392 18.3696 0 25 0H95C101.63 0 107.989 2.63392 112.678 7.32233C117.366 12.0107 120 18.3696 120 25V95C120 101.63 117.366 107.989 112.678 112.678C107.989 117.366 101.63 120 95 120H25C18.3696 120 12.0107 117.366 7.32233 112.678C2.63392 107.989 0 101.63 0 95V25ZM55 40C53.6739 40 52.4021 40.5268 51.4645 41.4645C50.5268 42.4021 50 43.6739 50 45V85C50 86.3261 49.4732 87.5979 48.5355 88.5355C47.5979 89.4732 46.3261 90 45 90H35C33.6739 90 32.4021 90.5268 31.4645 91.4645C30.5268 92.4021 30 93.6739 30 95C30 96.3261 30.5268 97.5979 31.4645 98.5355C32.4021 99.4732 33.6739 100 35 100H45C48.9782 100 52.7936 98.4196 55.6066 95.6066C58.4196 92.7936 60 88.9782 60 85V45C60 43.6739 59.4732 42.4021 58.5355 41.4645C57.5979 40.5268 56.3261 40 55 40ZM65 55V60C65 63.9782 66.5804 67.7936 69.3934 70.6066C72.2064 73.4196 76.0218 75 80 75H85C86.3261 75 87.5979 75.5268 88.5355 76.4645C89.4732 77.4021 90 78.6739 90 80V85C90 86.3261 89.4732 87.5979 88.5355 88.5355C87.5979 89.4732 86.3261 90 85 90H70C68.6739 90 67.4021 90.5268 66.4645 91.4645C65.5268 92.4021 65 93.6739 65 95C65 96.3261 65.5268 97.5979 66.4645 98.5355C67.4021 99.4732 68.6739 100 70 100H85C88.9782 100 92.7936 98.4196 95.6066 95.6066C98.4196 92.7936 100 88.9782 100 85V80C100 76.0218 98.4196 72.2064 95.6066 69.3934C92.7936 66.5804 88.9782 65 85 65H80C78.6739 65 77.4021 64.4732 76.4645 63.5355C75.5268 62.5979 75 61.3261 75 60V55C75 53.6739 75.5268 52.4021 76.4645 51.4645C77.4021 50.5268 78.6739 50 80 50H95C96.3261 50 97.5979 49.4732 98.5355 48.5355C99.4732 47.5979 100 46.3261 100 45C100 43.6739 99.4732 42.4021 98.5355 41.4645C97.5979 40.5268 96.3261 40 95 40H80C76.0218 40 72.2064 41.5804 69.3934 44.3934C66.5804 47.2064 65 51.0218 65 55Z" fill="#FFE81C"/>
</svg>
