<svg width="602" height="301" viewBox="0 0 602 301" fill="none" xmlns="http://www.w3.org/2000/svg">
<path d="M49.4733 2H54.7029V7.16683H59.4879V2H64.7176V17.6407H59.4879V12.4062H54.7029V17.6407H49.4781V2H49.4733Z" fill="black"/>
<path d="M71.5907 7.18617H66.9894V2H81.4265V7.18617H76.8204V17.6407H71.5907V7.18617Z" fill="black"/>
<path d="M83.7175 2H89.1695L92.5239 7.4955L95.8734 2H101.325V17.6407H96.1199V9.888L92.5239 15.4512H92.432L88.8312 9.89283V17.6407H83.7175V2Z" fill="black"/>
<path d="M103.926 2H109.16V12.4738H116.507V17.6455H103.926V2Z" fill="black"/>
<path fill-rule="evenodd" clip-rule="evenodd" d="M49.309 108.681L39.42 24.7988H126.42L116.526 108.672L82.8717 118L49.309 108.681ZM69.3045 62.7647L68.3668 52.228H107.734L108.653 41.9427H57.1293L59.9037 73.0548H95.5592L94.3653 86.3948L82.891 89.4978H82.8813L71.4263 86.4045L70.6917 78.2023H60.358L61.7983 94.3553L82.8717 100.204L103.979 94.3553L106.55 65.5293L106.801 62.7695H69.3045V62.7647Z" fill="black"/>
<g clip-path="url(#clip0_104_309)">
<path d="M276.43 0H289.32V5.39H281.82V10.78H289.32V16.17H276.43V0Z" fill="black"/>
<path d="M291.895 0H304.79V4.69H297.29V5.625H304.79V16.405H291.895V11.485H299.395V10.545H291.895V0Z" fill="black"/>
<path d="M307.37 0H320.255V4.69H312.755V5.625H320.255V16.405H307.37V11.485H314.87V10.545H307.37V0Z" fill="black"/>
<path fill-rule="evenodd" clip-rule="evenodd" d="M298.875 120L264.155 110.36L253.92 23.585H343.92L333.69 110.35L298.875 120ZM274.155 62.865L275.11 73.505H311.995L310.76 87.305L298.89 90.515H298.88L287.03 87.315L286.27 78.83H275.585L277.075 95.54L298.875 101.59L320.71 95.54L323.37 65.72L323.63 62.865L325.55 41.32H272.24L273.21 51.965H313.89L312.92 62.865H274.155Z" fill="black"/>
</g>
<path d="M464.42 7.5V112.5H569.42V7.5H464.42ZM521.562 89.3887C521.562 99.6075 515.562 104.272 506.821 104.272C498.924 104.272 494.352 100.196 492.009 95.25L500.049 90.3975C501.597 93.1388 503.004 95.46 506.401 95.46C509.634 95.46 511.696 94.1925 511.696 89.25V55.71H521.562V89.3887ZM544.902 104.272C535.737 104.272 529.809 99.915 526.925 94.1925L534.965 89.5537C537.076 93 539.84 95.5538 544.692 95.5538C548.769 95.5538 551.397 93.5137 551.397 90.6787C551.397 87.3037 548.724 86.1075 544.201 84.1162L541.741 83.0625C534.616 80.04 529.906 76.2188 529.906 68.1787C529.906 60.7725 535.554 55.1475 544.344 55.1475C550.625 55.1475 555.125 57.3263 558.361 63.045L550.674 67.9688C548.986 64.9463 547.156 63.75 544.321 63.75C541.441 63.75 539.611 65.58 539.611 67.9688C539.611 70.9238 541.441 72.1162 545.682 73.9688L548.142 75.0225C556.535 78.6075 561.245 82.29 561.245 90.5362C561.245 99.3975 554.259 104.269 544.906 104.269L544.902 104.272Z" fill="black"/>
<g clip-path="url(#clip1_104_309)">
<path d="M46.919 210.196H84.4211V213.177H50.3567V235.611H82.3901V238.592H50.3567V263.222H84.8118V266.202H46.919V210.196ZM87.7811 210.196H91.7656L109.423 234.827L127.47 210.196L152.018 178.91L111.688 237.415L132.471 266.202H128.33L109.423 240.004L90.4371 266.202H86.3745L107.313 237.415L87.7808 210.196H87.7811ZM133.955 213.177V210.196H176.692V213.177H157.003V266.202H153.566V213.177H133.955V213.177ZM0.00250244 210.196H4.29959L63.554 298.865L39.0674 266.202L3.59629 214.432L3.44017 266.203H0.00250244V210.196ZM176.346 262.322C175.643 262.322 175.117 261.778 175.117 261.074C175.117 260.371 175.643 259.827 176.346 259.827C177.056 259.827 177.575 260.371 177.575 261.074C177.575 261.778 177.056 262.322 176.346 262.322ZM179.724 259.04H181.563C181.588 260.036 182.316 260.706 183.386 260.706C184.582 260.706 185.259 259.986 185.259 258.638V250.098H187.132V258.646C187.132 261.074 185.727 262.473 183.402 262.473C181.22 262.473 179.724 261.116 179.724 259.04V259.04ZM189.582 258.931H191.438C191.597 260.078 192.717 260.806 194.331 260.806C195.836 260.806 196.94 260.028 196.94 258.956C196.94 258.035 196.237 257.483 194.64 257.106L193.085 256.729C190.902 256.218 189.908 255.164 189.908 253.389C189.908 251.237 191.663 249.806 194.297 249.806C196.747 249.806 198.536 251.237 198.645 253.272H196.822C196.647 252.158 195.677 251.463 194.272 251.463C192.792 251.463 191.806 252.175 191.806 253.263C191.806 254.125 192.441 254.62 194.013 254.988L195.342 255.314C197.817 255.892 198.837 256.897 198.837 258.714C198.837 261.024 197.048 262.473 194.189 262.473C191.513 262.473 189.715 261.091 189.582 258.931V258.931Z" fill="black"/>
</g>
<path d="M391.339 238.671C391.339 231.911 382.879 225.505 369.909 221.532C372.902 208.304 371.571 197.779 365.71 194.409C364.359 193.619 362.779 193.245 361.054 193.245V197.883C362.01 197.883 362.779 198.07 363.423 198.424C366.25 200.046 367.477 206.224 366.52 214.169C366.292 216.124 365.918 218.184 365.46 220.284C361.386 219.286 356.938 218.516 352.261 218.017C349.455 214.169 346.545 210.675 343.614 207.617C350.39 201.315 356.751 197.862 361.074 197.862V193.224C355.358 193.224 347.875 197.301 340.309 204.373C332.743 197.342 325.26 193.307 319.543 193.307V197.945C323.846 197.945 330.227 201.377 337.004 207.638C334.094 210.696 331.184 214.169 328.419 218.017C323.721 218.516 319.273 219.286 315.199 220.305C314.721 218.225 314.367 216.208 314.118 214.273C313.141 206.328 314.347 200.15 317.153 198.507C317.776 198.133 318.587 197.966 319.543 197.966V193.328C317.797 193.328 316.217 193.702 314.846 194.493C309.005 197.862 307.695 208.366 310.709 221.553C297.78 225.547 289.362 231.932 289.362 238.671C289.362 245.431 297.822 251.838 310.792 255.81C307.799 269.039 309.129 279.564 314.991 282.933C316.342 283.723 317.922 284.098 319.668 284.098C325.384 284.098 332.867 280.021 340.434 272.949C348 279.98 355.483 284.015 361.199 284.015C362.945 284.015 364.525 283.64 365.897 282.85C371.738 279.48 373.047 268.976 370.033 255.789C382.921 251.817 391.339 245.41 391.339 238.671ZM364.275 224.798C363.506 227.481 362.55 230.247 361.469 233.014C360.617 231.35 359.723 229.686 358.746 228.022C357.79 226.358 356.772 224.735 355.753 223.155C358.705 223.591 361.552 224.132 364.275 224.798ZM354.755 246.95C353.134 249.758 351.471 252.42 349.746 254.895C346.649 255.165 343.51 255.311 340.35 255.311C337.212 255.311 334.073 255.165 330.997 254.916C329.271 252.441 327.588 249.799 325.966 247.012C324.386 244.287 322.952 241.521 321.643 238.734C322.931 235.947 324.386 233.159 325.945 230.435C327.567 227.627 329.23 224.964 330.955 222.489C334.052 222.219 337.191 222.073 340.35 222.073C343.489 222.073 346.628 222.219 349.704 222.468C351.429 224.943 353.113 227.585 354.734 230.372C356.314 233.097 357.749 235.863 359.058 238.65C357.749 241.438 356.314 244.225 354.755 246.95ZM361.469 244.246C362.592 247.033 363.548 249.82 364.338 252.524C361.615 253.189 358.746 253.751 355.774 254.188C356.792 252.586 357.811 250.943 358.767 249.258C359.723 247.594 360.617 245.91 361.469 244.246ZM340.392 266.439C338.459 264.442 336.526 262.217 334.613 259.783C336.484 259.866 338.396 259.929 340.33 259.929C342.283 259.929 344.217 259.887 346.108 259.783C344.237 262.217 342.304 264.442 340.392 266.439ZM324.927 254.188C321.975 253.751 319.128 253.21 316.405 252.545C317.174 249.862 318.13 247.095 319.211 244.329C320.063 245.993 320.957 247.657 321.934 249.321C322.911 250.985 323.908 252.607 324.927 254.188ZM340.288 210.904C342.221 212.9 344.154 215.126 346.067 217.56C344.196 217.476 342.283 217.414 340.35 217.414C338.396 217.414 336.463 217.456 334.572 217.56C336.443 215.126 338.376 212.9 340.288 210.904ZM324.906 223.155C323.888 224.756 322.869 226.399 321.913 228.084C320.957 229.748 320.063 231.412 319.211 233.076C318.088 230.289 317.132 227.502 316.342 224.798C319.065 224.153 321.934 223.591 324.906 223.155ZM306.095 249.196C298.736 246.055 293.976 241.937 293.976 238.671C293.976 235.406 298.736 231.267 306.095 228.147C307.882 227.377 309.836 226.691 311.852 226.046C313.037 230.123 314.596 234.366 316.529 238.713C314.617 243.039 313.079 247.262 311.915 251.318C309.857 250.673 307.903 249.966 306.095 249.196ZM317.278 278.919C314.451 277.296 313.224 271.119 314.18 263.173C314.409 261.218 314.783 259.159 315.241 257.058C319.315 258.057 323.763 258.826 328.44 259.325C331.246 263.173 334.156 266.668 337.087 269.725C330.311 276.028 323.95 279.48 319.626 279.48C318.691 279.46 317.901 279.272 317.278 278.919ZM366.583 263.069C367.56 271.015 366.354 277.192 363.548 278.836C362.924 279.21 362.114 279.376 361.157 279.376C356.855 279.376 350.473 275.944 343.697 269.684C346.607 266.626 349.517 263.153 352.282 259.305C356.979 258.805 361.428 258.036 365.502 257.017C365.98 259.117 366.354 261.135 366.583 263.069ZM374.585 249.196C372.798 249.966 370.844 250.652 368.828 251.297C367.643 247.22 366.084 242.977 364.151 238.63C366.063 234.303 367.601 230.081 368.765 226.025C370.823 226.67 372.777 227.377 374.606 228.147C381.965 231.287 386.725 235.406 386.725 238.671C386.704 241.937 381.944 246.076 374.585 249.196Z" fill="black"/>
<path d="M340.33 248.177C345.576 248.177 349.829 243.921 349.829 238.671C349.829 233.422 345.576 229.166 340.33 229.166C335.083 229.166 330.83 233.422 330.83 238.671C330.83 243.921 335.083 248.177 340.33 248.177Z" fill="black"/>
<g clip-path="url(#clip2_104_309)">
<path d="M541.84 238.91C541.84 212.252 581.841 212.252 581.841 238.91C581.841 265.569 541.84 265.569 541.84 238.91ZM501.839 278.912C501.837 276.285 502.354 273.684 503.358 271.257C504.363 268.83 505.836 266.625 507.693 264.767C509.55 262.91 511.756 261.437 514.183 260.432C516.61 259.428 519.211 258.912 521.837 258.913H541.836V278.912C541.836 305.57 501.835 305.57 501.835 278.912H501.839ZM541.84 178.91V218.912H561.839C588.497 218.912 588.497 178.91 561.839 178.91H541.84ZM501.839 198.909C501.837 201.536 502.354 204.137 503.358 206.564C504.363 208.991 505.836 211.196 507.693 213.054C509.55 214.911 511.756 216.384 514.183 217.389C516.61 218.393 519.211 218.909 521.837 218.908H541.836V178.907H521.837C519.211 178.905 516.61 179.422 514.183 180.426C511.756 181.431 509.55 182.904 507.693 184.761C505.836 186.618 504.363 188.824 503.358 191.251C502.354 193.678 501.837 196.279 501.839 198.905V198.909ZM501.839 238.91C501.837 241.537 502.354 244.138 503.358 246.565C504.363 248.992 505.836 251.198 507.693 253.055C509.55 254.912 511.756 256.385 514.183 257.39C516.61 258.394 519.211 258.911 521.837 258.909H541.836V218.908H521.837C519.211 218.907 516.61 219.423 514.183 220.427C511.756 221.432 509.55 222.905 507.693 224.762C505.836 226.62 504.363 228.825 503.358 231.252C502.354 233.679 501.837 236.28 501.839 238.907V238.91Z" fill="black"/>
</g>
<defs>
<clipPath id="clip0_104_309">
<rect width="120" height="120" fill="white" transform="translate(238.92)"/>
</clipPath>
<clipPath id="clip1_104_309">
<rect width="198.84" height="120" fill="white" transform="translate(0 178.91)"/>
</clipPath>
<clipPath id="clip2_104_309">
<rect width="120" height="120" fill="white" transform="translate(481.84 178.91)"/>
</clipPath>
</defs>
</svg>
