<svg width="578" height="301" viewBox="0 0 578 301" fill="none" xmlns="http://www.w3.org/2000/svg">
<path d="M37.5533 2H42.783V7.16683H47.5679V2H52.7976V17.6407H47.5679V12.4062H42.783V17.6407H37.5581V2H37.5533Z" fill="black"/>
<path d="M59.6707 7.18617H55.0694V2H69.5066V7.18617H64.9004V17.6407H59.6707V7.18617Z" fill="black"/>
<path d="M71.7975 2H77.2495L80.6039 7.4955L83.9534 2H89.4054V17.6407H84.1999V9.888L80.6039 15.4512H80.512L76.9112 9.89283V17.6407H71.7975V2Z" fill="black"/>
<path d="M92.0057 2H97.2402V12.4738H104.587V17.6455H92.0057V2Z" fill="black"/>
<path fill-rule="evenodd" clip-rule="evenodd" d="M37.389 108.681L27.5 24.7988H114.5L104.606 108.672L70.9517 118L37.389 108.681ZM57.3845 62.7647L56.4468 52.228H95.8143L96.7327 41.9427H45.2093L47.9837 73.0548H83.6392L82.4453 86.3948L70.971 89.4978H70.9613L59.5063 86.4045L58.7717 78.2023H48.438L49.8783 94.3553L70.9517 100.204L92.0588 94.3553L94.6302 65.5293L94.8815 62.7695H57.3845V62.7647Z" fill="black"/>
<g clip-path="url(#clip0_104_309)">
<path d="M264.51 0H277.4V5.39H269.9V10.78H277.4V16.17H264.51V0Z" fill="black"/>
<path d="M279.975 0H292.87V4.69H285.37V5.625H292.87V16.405H279.975V11.485H287.475V10.545H279.975V0Z" fill="black"/>
<path d="M295.45 0H308.335V4.69H300.835V5.625H308.335V16.405H295.45V11.485H302.95V10.545H295.45V0Z" fill="black"/>
<path fill-rule="evenodd" clip-rule="evenodd" d="M286.955 120L252.235 110.36L242 23.585H332L321.77 110.35L286.955 120ZM262.235 62.865L263.19 73.505H300.075L298.84 87.305L286.97 90.515H286.96L275.11 87.315L274.35 78.83H263.665L265.155 95.54L286.955 101.59L308.79 95.54L311.45 65.72L311.71 62.865L313.63 41.32H260.32L261.29 51.965H301.97L301 62.865H262.235Z" fill="black"/>
</g>
<path d="M452.5 7.5V112.5H557.5V7.5H452.5ZM509.643 89.3887C509.643 99.6075 503.643 104.272 494.901 104.272C487.004 104.272 482.433 100.196 480.089 95.25L488.129 90.3975C489.678 93.1388 491.084 95.46 494.481 95.46C497.714 95.46 499.776 94.1925 499.776 89.25V55.71H509.643V89.3887ZM532.982 104.272C523.817 104.272 517.889 99.915 515.005 94.1925L523.045 89.5537C525.156 93 527.92 95.5538 532.772 95.5538C536.849 95.5538 539.478 93.5137 539.478 90.6787C539.478 87.3037 536.804 86.1075 532.281 84.1162L529.821 83.0625C522.696 80.04 517.986 76.2188 517.986 68.1787C517.986 60.7725 523.634 55.1475 532.424 55.1475C538.705 55.1475 543.205 57.3263 546.441 63.045L538.754 67.9688C537.066 64.9463 535.236 63.75 532.401 63.75C529.521 63.75 527.691 65.58 527.691 67.9688C527.691 70.9238 529.521 72.1162 533.762 73.9688L536.223 75.0225C544.615 78.6075 549.325 82.29 549.325 90.5362C549.325 99.3975 542.339 104.269 532.986 104.269L532.982 104.272Z" fill="black"/>
<path d="M138.499 238.671C138.499 231.911 130.039 225.505 117.069 221.532C120.062 208.304 118.731 197.779 112.87 194.409C111.519 193.619 109.939 193.245 108.214 193.245V197.883C109.17 197.883 109.939 198.07 110.583 198.424C113.41 200.046 114.637 206.224 113.68 214.169C113.452 216.124 113.078 218.184 112.62 220.284C108.546 219.286 104.098 218.516 99.4209 218.017C96.6148 214.169 93.7047 210.675 90.7738 207.617C97.5502 201.315 103.911 197.862 108.234 197.862V193.224C102.518 193.224 95.035 197.301 87.4688 204.373C79.9026 197.342 72.4195 193.307 66.7033 193.307V197.945C71.006 197.945 77.3874 201.377 84.1638 207.638C81.2537 210.696 78.3436 214.169 75.579 218.017C70.8813 218.516 66.4331 219.286 62.3589 220.305C61.8808 218.225 61.5275 216.208 61.278 214.273C60.3011 206.328 61.5067 200.15 64.3128 198.507C64.9364 198.133 65.7471 197.966 66.7033 197.966V193.328C64.9572 193.328 63.3775 193.702 62.0056 194.493C56.1646 197.862 54.8551 208.366 57.8691 221.553C44.94 225.547 36.5215 231.932 36.5215 238.671C36.5215 245.431 44.9816 251.838 57.9522 255.81C54.959 269.039 56.2893 279.564 62.1511 282.933C63.5022 283.723 65.0819 284.098 66.828 284.098C72.5442 284.098 80.0273 280.021 87.5935 272.949C95.1597 279.98 102.643 284.015 108.359 284.015C110.105 284.015 111.685 283.64 113.057 282.85C118.898 279.48 120.207 268.976 117.193 255.789C130.081 251.817 138.499 245.41 138.499 238.671ZM111.435 224.798C110.666 227.481 109.71 230.247 108.629 233.014C107.777 231.35 106.883 229.686 105.906 228.022C104.95 226.358 103.932 224.735 102.913 223.155C105.865 223.591 108.712 224.132 111.435 224.798ZM101.915 246.95C100.294 249.758 98.631 252.42 96.9058 254.895C93.8086 255.165 90.6699 255.311 87.5104 255.311C84.3716 255.311 81.2329 255.165 78.1565 254.916C76.4313 252.441 74.7476 249.799 73.1262 247.012C71.5465 244.287 70.1122 241.521 68.8027 238.734C70.0914 235.947 71.5465 233.159 73.1055 230.435C74.7268 227.627 76.3897 224.964 78.115 222.489C81.2121 222.219 84.3508 222.073 87.5104 222.073C90.6491 222.073 93.7878 222.219 96.8642 222.468C98.5895 224.943 100.273 227.585 101.895 230.372C103.474 233.097 104.909 235.863 106.218 238.65C104.909 241.438 103.474 244.225 101.915 246.95ZM108.629 244.246C109.752 247.033 110.708 249.82 111.498 252.524C108.775 253.189 105.906 253.751 102.934 254.188C103.952 252.586 104.971 250.943 105.927 249.258C106.883 247.594 107.777 245.91 108.629 244.246ZM87.5519 266.439C85.6188 264.442 83.6857 262.217 81.7733 259.783C83.6441 259.866 85.5565 259.929 87.4896 259.929C89.4435 259.929 91.3766 259.887 93.2682 259.783C91.3974 262.217 89.4643 264.442 87.5519 266.439ZM72.0869 254.188C69.1353 253.751 66.2875 253.21 63.5645 252.545C64.3336 249.862 65.2898 247.095 66.3707 244.329C67.2229 245.993 68.1167 247.657 69.0937 249.321C70.0707 250.985 71.0684 252.607 72.0869 254.188ZM87.448 210.904C89.3811 212.9 91.3143 215.126 93.2266 217.56C91.3558 217.476 89.4435 217.414 87.5104 217.414C85.5565 217.414 83.6233 217.456 81.7318 217.56C83.6025 215.126 85.5357 212.9 87.448 210.904ZM72.0661 223.155C71.0476 224.756 70.0291 226.399 69.0729 228.084C68.1167 229.748 67.2229 231.412 66.3707 233.076C65.2482 230.289 64.2921 227.502 63.5022 224.798C66.2252 224.153 69.0937 223.591 72.0661 223.155ZM53.2545 249.196C45.8962 246.055 41.1361 241.937 41.1361 238.671C41.1361 235.406 45.8962 231.267 53.2545 228.147C55.0422 227.377 56.9961 226.691 59.0123 226.046C60.1972 230.123 61.7561 234.366 63.6893 238.713C61.7769 243.039 60.2387 247.262 59.0747 251.318C57.0169 250.673 55.0629 249.966 53.2545 249.196ZM64.4376 278.919C61.6106 277.296 60.3842 271.119 61.3404 263.173C61.5691 261.218 61.9432 259.159 62.4005 257.058C66.4746 258.057 70.9229 258.826 75.5998 259.325C78.406 263.173 81.316 266.668 84.2469 269.725C77.4706 276.028 71.11 279.48 66.7864 279.48C65.851 279.46 65.0612 279.272 64.4376 278.919ZM113.743 263.069C114.72 271.015 113.514 277.192 110.708 278.836C110.084 279.21 109.274 279.376 108.317 279.376C104.015 279.376 97.6333 275.944 90.857 269.684C93.7671 266.626 96.6771 263.153 99.4417 259.305C104.139 258.805 108.588 258.036 112.662 257.017C113.14 259.117 113.514 261.135 113.743 263.069ZM121.745 249.196C119.958 249.966 118.004 250.652 115.988 251.297C114.803 247.22 113.244 242.977 111.311 238.63C113.223 234.303 114.761 230.081 115.925 226.025C117.983 226.67 119.937 227.377 121.766 228.147C129.125 231.287 133.885 235.406 133.885 238.671C133.864 241.937 129.104 246.076 121.745 249.196Z" fill="black"/>
<path d="M87.4896 248.177C92.7359 248.177 96.9889 243.921 96.9889 238.671C96.9889 233.422 92.7359 229.166 87.4896 229.166C82.2432 229.166 77.9902 233.422 77.9902 238.671C77.9902 243.921 82.2432 248.177 87.4896 248.177Z" fill="black"/>
<g clip-path="url(#clip1_104_309)">
<path d="M315.496 292.449C314.918 292.449 314.345 292.298 313.838 292.006L308.562 288.886C307.774 288.445 308.159 288.29 308.419 288.2C309.469 287.832 309.683 287.749 310.804 287.113C310.922 287.046 311.076 287.07 311.197 287.141L315.25 289.544C315.397 289.623 315.604 289.623 315.74 289.544L331.544 280.43C331.69 280.347 331.785 280.177 331.785 280.003V261.784C331.785 261.602 331.69 261.44 331.541 261.349L315.743 252.243C315.597 252.156 315.403 252.156 315.257 252.243L299.462 261.349C299.309 261.436 299.212 261.606 299.212 261.78V279.999C299.212 280.173 299.307 280.339 299.457 280.422L303.785 282.92C306.135 284.094 307.571 282.71 307.571 281.319V263.337C307.571 263.08 307.772 262.882 308.03 262.882H310.031C310.28 262.882 310.486 263.08 310.486 263.337V281.327C310.486 284.457 308.777 286.255 305.806 286.255C304.892 286.255 304.172 286.255 302.163 285.267L298.017 282.88C296.992 282.287 296.359 281.181 296.359 279.999V261.78C296.359 260.594 296.992 259.487 298.017 258.902L313.837 249.785C314.838 249.22 316.167 249.22 317.16 249.785L332.96 258.906C333.981 259.495 334.617 260.598 334.617 261.784V280.003C334.617 281.185 333.981 282.287 332.96 282.88L317.16 291.998C316.653 292.29 316.08 292.441 315.494 292.441" fill="#689F63"/>
<path d="M320.378 279.894C313.463 279.894 312.013 276.723 312.013 274.063C312.013 273.81 312.217 273.609 312.47 273.609H314.512C314.737 273.609 314.927 273.773 314.963 273.995C315.271 276.073 316.189 277.122 320.37 277.122C323.701 277.122 325.118 276.37 325.118 274.605C325.118 273.59 324.714 272.835 319.54 272.329C315.212 271.902 312.538 270.949 312.538 267.491C312.538 264.306 315.228 262.409 319.734 262.409C324.793 262.409 327.301 264.164 327.618 267.934C327.63 268.064 327.582 268.191 327.495 268.286C327.408 268.377 327.286 268.432 327.159 268.432H325.106C324.892 268.432 324.706 268.282 324.663 268.076C324.168 265.891 322.974 265.191 319.726 265.191C316.09 265.191 315.667 266.456 315.667 267.404C315.667 268.554 316.165 268.89 321.071 269.539C325.929 270.183 328.235 271.092 328.235 274.502C328.235 277.941 325.363 279.913 320.355 279.913L320.378 279.894ZM339.604 260.591H340.134C340.57 260.591 340.653 260.286 340.653 260.109C340.653 259.642 340.332 259.642 340.154 259.642H339.608L339.604 260.591ZM338.96 259.097H340.134C340.538 259.097 341.329 259.097 341.329 259.998C341.329 260.626 340.926 260.757 340.684 260.836C341.155 260.867 341.187 261.176 341.25 261.61C341.282 261.883 341.333 262.353 341.428 262.512H340.704C340.684 262.353 340.574 261.484 340.574 261.437C340.526 261.243 340.459 261.148 340.218 261.148H339.62V262.515H338.96V259.097ZM337.547 260.796C337.547 262.211 338.691 263.357 340.095 263.357C341.511 263.357 342.654 262.187 342.654 260.796C342.654 259.377 341.495 258.251 340.091 258.251C338.706 258.251 337.543 259.362 337.543 260.792L337.547 260.796ZM343.145 260.804C343.145 262.48 341.772 263.847 340.099 263.847C338.437 263.847 337.053 262.496 337.053 260.804C337.053 259.081 338.469 257.761 340.099 257.761C341.741 257.761 343.141 259.085 343.141 260.804" fill="#689F63"/>
<path fill-rule="evenodd" clip-rule="evenodd" d="M266.556 221.16C266.556 220.432 266.173 219.764 265.544 219.403L248.788 209.771C248.506 209.605 248.189 209.518 247.868 209.507H247.694C247.373 209.518 247.056 209.605 246.769 209.771L230.014 219.403C229.389 219.766 229 220.434 229 221.162L229.037 247.104C229.037 247.463 229.223 247.799 229.539 247.977C229.848 248.167 230.235 248.167 230.544 247.977L240.505 242.278C241.134 241.904 241.518 241.243 241.518 240.523V228.404C241.518 227.681 241.902 227.013 242.529 226.653L246.769 224.213C247.084 224.031 247.43 223.941 247.782 223.941C248.129 223.941 248.482 224.03 248.788 224.213L253.027 226.652C253.655 227.012 254.04 227.679 254.04 228.403V240.521C254.04 241.241 254.429 241.905 255.055 242.276L265.009 247.971C265.322 248.157 265.711 248.157 266.022 247.971C266.329 247.793 266.524 247.457 266.524 247.098L266.556 221.16ZM345.623 234.667C345.623 234.847 345.527 235.014 345.37 235.104L339.615 238.418C339.459 238.508 339.266 238.508 339.11 238.418L333.354 235.104C333.195 235.014 333.101 234.847 333.101 234.667V228.028C333.101 227.847 333.195 227.681 333.35 227.59L339.102 224.27C339.26 224.179 339.454 224.179 339.612 224.27L345.368 227.59C345.526 227.681 345.621 227.847 345.621 228.028L345.623 234.667ZM347.178 185.501C346.864 185.326 346.482 185.331 346.171 185.511C345.863 185.693 345.672 186.025 345.672 186.385V212.074C345.672 212.327 345.538 212.56 345.319 212.686C345.101 212.813 344.83 212.813 344.61 212.686L340.413 210.271C339.788 209.91 339.018 209.91 338.391 210.271L321.629 219.936C321.003 220.295 320.617 220.963 320.617 221.682V241.017C320.617 241.74 321.003 242.404 321.629 242.767L338.391 252.438C339.017 252.798 339.787 252.798 340.415 252.438L357.176 242.763C357.802 242.4 358.189 241.736 358.189 241.013V192.827C358.189 192.094 357.79 191.419 357.149 191.061L347.178 185.501ZM402.994 227.854C403.616 227.493 404 226.825 404 226.106V221.42C404 220.7 403.616 220.034 402.992 219.672L386.337 210.012C385.708 209.649 384.937 209.649 384.308 210.012L367.551 219.676C366.922 220.039 366.538 220.703 366.538 221.426V240.753C366.538 241.48 366.929 242.152 367.558 242.511L384.209 251.993C384.822 252.344 385.574 252.348 386.195 252.004L396.267 246.412C396.583 246.234 396.785 245.898 396.785 245.535C396.785 245.171 396.591 244.831 396.275 244.653L379.414 234.986C379.098 234.808 378.904 234.472 378.904 234.113V228.05C378.904 227.688 379.094 227.355 379.411 227.174L384.656 224.151C384.969 223.969 385.352 223.969 385.665 224.151L390.914 227.174C391.227 227.352 391.421 227.688 391.421 228.048V232.814C391.421 233.174 391.615 233.51 391.927 233.692C392.24 233.869 392.627 233.869 392.94 233.688L402.994 227.854Z" fill="black"/>
<path fill-rule="evenodd" clip-rule="evenodd" d="M385.078 226.949C385.196 226.879 385.345 226.879 385.465 226.949L388.681 228.803C388.802 228.873 388.875 229.001 388.875 229.139V232.85C388.875 232.988 388.802 233.116 388.681 233.186L385.465 235.04C385.345 235.11 385.196 235.11 385.078 235.04L381.863 233.186C381.741 233.116 381.666 232.988 381.666 232.85V229.139C381.666 229.001 381.737 228.873 381.859 228.803L385.078 226.949Z" fill="#689F63"/>
<path d="M329.108 218.087L282.145 195.09L258.065 244.166L305.027 267.164L329.108 218.087Z" fill="url(#paint0_linear_104_309)"/>
<path d="M255.016 224.889L288.177 269.728L332.033 237.357L298.87 192.52L255.016 224.889Z" fill="url(#paint1_linear_104_309)"/>
<path d="M275.963 209.844V252.302H312.232V209.844H275.963Z" fill="url(#paint2_linear_104_309)"/>
</g>
<g clip-path="url(#clip2_104_309)">
<path d="M518 238.91C518 212.252 558.001 212.252 558.001 238.91C558.001 265.569 518 265.569 518 238.91ZM477.999 278.912C477.997 276.285 478.514 273.684 479.518 271.257C480.523 268.83 481.996 266.625 483.853 264.767C485.71 262.91 487.916 261.437 490.343 260.432C492.77 259.428 495.371 258.912 497.997 258.913H517.996V278.912C517.996 305.57 477.995 305.57 477.995 278.912H477.999ZM518 178.91V218.912H537.999C564.657 218.912 564.657 178.91 537.999 178.91H518ZM477.999 198.909C477.997 201.536 478.514 204.137 479.518 206.564C480.523 208.991 481.996 211.196 483.853 213.054C485.71 214.911 487.916 216.384 490.343 217.389C492.77 218.393 495.371 218.909 497.997 218.908H517.996V178.907H497.997C495.371 178.905 492.77 179.422 490.343 180.426C487.916 181.431 485.71 182.904 483.853 184.761C481.996 186.618 480.523 188.824 479.518 191.251C478.514 193.678 477.997 196.279 477.999 198.905V198.909ZM477.999 238.91C477.997 241.537 478.514 244.138 479.518 246.565C480.523 248.992 481.996 251.198 483.853 253.055C485.71 254.912 487.916 256.385 490.343 257.39C492.77 258.394 495.371 258.911 497.997 258.909H517.996V218.908H497.997C495.371 218.907 492.77 219.423 490.343 220.427C487.916 221.432 485.71 222.905 483.853 224.762C481.996 226.62 480.523 228.825 479.518 231.252C478.514 233.679 477.997 236.28 477.999 238.907V238.91Z" fill="black"/>
</g>
<defs>
<linearGradient id="paint0_linear_104_309" x1="233.342" y1="195.09" x2="346.94" y2="195.09" gradientUnits="userSpaceOnUse">
<stop offset="0.3" stop-color="#3E863D"/>
<stop offset="0.5" stop-color="#55934F"/>
<stop offset="0.8" stop-color="#5AAD45"/>
</linearGradient>
<linearGradient id="paint1_linear_104_309" x1="219.897" y1="192.52" x2="299.84" y2="192.52" gradientUnits="userSpaceOnUse">
<stop offset="0.57" stop-color="#3E863D"/>
<stop offset="0.72" stop-color="#619857"/>
<stop offset="1" stop-color="#76AC64"/>
</linearGradient>
<linearGradient id="paint2_linear_104_309" x1="277.523" y1="209.844" x2="311.652" y2="209.844" gradientUnits="userSpaceOnUse">
<stop offset="0.16" stop-color="#6BBF47"/>
<stop offset="0.38" stop-color="#79B461"/>
<stop offset="0.47" stop-color="#75AC64"/>
<stop offset="0.7" stop-color="#659E5A"/>
<stop offset="0.9" stop-color="#3E863D"/>
</linearGradient>
<clipPath id="clip0_104_309">
<rect width="120" height="120" fill="white" transform="translate(227)"/>
</clipPath>
<clipPath id="clip1_104_309">
<rect width="175" height="107.076" fill="white" transform="translate(229 185.372)"/>
</clipPath>
<clipPath id="clip2_104_309">
<rect width="120" height="120" fill="white" transform="translate(458 178.91)"/>
</clipPath>
</defs>
</svg>
